<svg width="119" height="101" viewBox="0 0 119 101" fill="none" xmlns="http://www.w3.org/2000/svg">
<mask id="path-1-outside-1_22_297" maskUnits="userSpaceOnUse" x="0" y="0" width="119" height="101" fill="black">
<rect fill="white" width="119" height="101"/>
<path d="M1.8626 70.7939C1.8626 61.3893 3.89313 52.4122 7.9542 43.8626C12.0153 35.3129 17.3588 27.5114 23.9847 20.458C30.8244 13.1908 38.1985 6.99234 46.1069 1.86257L52.1985 10.519C44.5038 16.7175 38.1985 22.5954 33.2824 28.1526C28.5802 33.4962 24.4122 40.4427 20.7786 48.9923L30.0763 57.3282C34.9924 61.3893 38.3053 65.3435 40.0153 69.1908C41.7252 73.0381 42.5802 76.9923 42.5802 81.0534C42.5802 87.4656 40.8702 92.2748 37.4504 95.4809C34.0305 98.4733 29.4351 99.9694 23.6641 99.9694C20.458 99.9694 17.3588 99.542 14.3664 98.687C11.5878 97.6183 8.91603 95.9084 6.35115 93.5572C3.35878 86.2901 1.8626 78.7023 1.8626 70.7939ZM66.9466 70.7939C66.9466 61.3893 68.9771 52.4122 73.0382 43.8626C77.0993 35.3129 82.4428 27.5114 89.0687 20.458C95.9084 13.1908 103.282 6.99234 111.191 1.86257L117.282 10.519C109.588 16.7175 103.282 22.5954 98.3664 28.1526C93.6641 33.4962 89.4962 40.4427 85.8626 48.9923L95.1603 57.3282C100.076 61.3893 103.389 65.3435 105.099 69.1908C106.809 73.0381 107.664 76.9923 107.664 81.0534C107.664 87.4656 105.954 92.2748 102.534 95.4809C99.1145 98.4733 94.5191 99.9694 88.7481 99.9694C85.542 99.9694 82.4428 99.542 79.4504 98.687C76.6718 97.6183 74 95.9084 71.4351 93.5572C68.4428 86.2901 66.9466 78.7023 66.9466 70.7939Z"/>
</mask>
<path d="M1.8626 70.7939C1.8626 61.3893 3.89313 52.4122 7.9542 43.8626C12.0153 35.3129 17.3588 27.5114 23.9847 20.458C30.8244 13.1908 38.1985 6.99234 46.1069 1.86257L52.1985 10.519C44.5038 16.7175 38.1985 22.5954 33.2824 28.1526C28.5802 33.4962 24.4122 40.4427 20.7786 48.9923L30.0763 57.3282C34.9924 61.3893 38.3053 65.3435 40.0153 69.1908C41.7252 73.0381 42.5802 76.9923 42.5802 81.0534C42.5802 87.4656 40.8702 92.2748 37.4504 95.4809C34.0305 98.4733 29.4351 99.9694 23.6641 99.9694C20.458 99.9694 17.3588 99.542 14.3664 98.687C11.5878 97.6183 8.91603 95.9084 6.35115 93.5572C3.35878 86.2901 1.8626 78.7023 1.8626 70.7939ZM66.9466 70.7939C66.9466 61.3893 68.9771 52.4122 73.0382 43.8626C77.0993 35.3129 82.4428 27.5114 89.0687 20.458C95.9084 13.1908 103.282 6.99234 111.191 1.86257L117.282 10.519C109.588 16.7175 103.282 22.5954 98.3664 28.1526C93.6641 33.4962 89.4962 40.4427 85.8626 48.9923L95.1603 57.3282C100.076 61.3893 103.389 65.3435 105.099 69.1908C106.809 73.0381 107.664 76.9923 107.664 81.0534C107.664 87.4656 105.954 92.2748 102.534 95.4809C99.1145 98.4733 94.5191 99.9694 88.7481 99.9694C85.542 99.9694 82.4428 99.542 79.4504 98.687C76.6718 97.6183 74 95.9084 71.4351 93.5572C68.4428 86.2901 66.9466 78.7023 66.9466 70.7939Z" fill="white"/>
<path d="M23.9847 20.458L23.2565 19.7726L23.2559 19.7733L23.9847 20.458ZM46.1069 1.86257L46.9247 1.28707L46.3705 0.499599L45.5627 1.02361L46.1069 1.86257ZM52.1985 10.519L52.8258 11.2978L53.5556 10.7099L53.0163 9.94355L52.1985 10.519ZM33.2824 28.1526L32.5335 27.4901L32.5317 27.492L33.2824 28.1526ZM20.7786 48.9923L19.8583 48.6012L19.5785 49.2594L20.1111 49.7369L20.7786 48.9923ZM30.0763 57.3282L29.4088 58.0728L29.4239 58.0863L29.4395 58.0992L30.0763 57.3282ZM37.4504 95.4809L38.1089 96.2335L38.1218 96.2222L38.1343 96.2104L37.4504 95.4809ZM14.3664 98.687L14.0074 99.6203L14.0489 99.6363L14.0917 99.6485L14.3664 98.687ZM6.35115 93.5572L5.42647 93.938L5.51126 94.1439L5.67542 94.2944L6.35115 93.5572ZM73.0382 43.8626L72.1349 43.4335L73.0382 43.8626ZM89.0687 20.458L88.3405 19.7726L88.3399 19.7733L89.0687 20.458ZM111.191 1.86257L112.009 1.28707L111.455 0.499599L110.647 1.02361L111.191 1.86257ZM117.282 10.519L117.91 11.2978L118.64 10.7099L118.1 9.94355L117.282 10.519ZM98.3664 28.1526L97.6174 27.4901L97.6157 27.492L98.3664 28.1526ZM85.8626 48.9923L84.9423 48.6012L84.6625 49.2594L85.1951 49.7369L85.8626 48.9923ZM95.1603 57.3282L94.4928 58.0728L94.5078 58.0863L94.5234 58.0992L95.1603 57.3282ZM105.099 69.1908L106.013 68.7847L105.099 69.1908ZM102.534 95.4809L103.193 96.2335L103.206 96.2222L103.218 96.2104L102.534 95.4809ZM79.4504 98.687L79.0914 99.6203L79.1329 99.6363L79.1757 99.6485L79.4504 98.687ZM71.4351 93.5572L70.5104 93.938L70.5952 94.1439L70.7594 94.2944L71.4351 93.5572ZM2.8626 70.7939C2.8626 61.5387 4.85967 52.7081 8.85748 44.2916L7.05092 43.4335C2.9266 52.1163 0.862597 61.2399 0.862597 70.7939H2.8626ZM8.85748 44.2916C12.873 35.8378 18.1571 28.1222 24.7136 21.1427L23.2559 19.7733C16.5605 26.9007 11.1575 34.788 7.05092 43.4335L8.85748 44.2916ZM24.7129 21.1433C31.5009 13.9312 38.8138 7.78518 46.6511 2.70153L45.5627 1.02361C37.5832 6.19949 30.148 12.4505 23.2565 19.7726L24.7129 21.1433ZM45.2891 2.43806L51.3807 11.0945L53.0163 9.94355L46.9247 1.28707L45.2891 2.43806ZM51.5712 9.74029C43.8461 15.9632 37.4966 21.8796 32.5335 27.4901L34.0314 28.8152C38.9004 23.3112 45.1615 17.4718 52.8258 11.2978L51.5712 9.74029ZM32.5317 27.492C27.7411 32.9359 23.5216 39.9815 19.8583 48.6012L21.699 49.3835C25.3028 40.9039 29.4192 34.0564 34.0332 28.8133L32.5317 27.492ZM20.1111 49.7369L29.4088 58.0728L30.7439 56.5836L21.4462 48.2478L20.1111 49.7369ZM29.4395 58.0992C34.2922 62.1079 37.4784 65.945 39.1015 69.5969L40.9291 68.7847C39.1323 64.7419 35.6926 60.6706 30.7132 56.5573L29.4395 58.0992ZM39.1015 69.5969C40.7567 73.3212 41.5802 77.1374 41.5802 81.0534H43.5802C43.5802 76.8473 42.6937 72.7551 40.9291 68.7847L39.1015 69.5969ZM41.5802 81.0534C41.5802 87.2944 39.919 91.7959 36.7664 94.7514L38.1343 96.2104C41.8215 92.7537 43.5802 87.6369 43.5802 81.0534H41.5802ZM36.7919 94.7283C33.5993 97.5218 29.2603 98.9694 23.6641 98.9694V100.969C29.61 100.969 34.4617 99.4247 38.1089 96.2335L36.7919 94.7283ZM23.6641 98.9694C20.5481 98.9694 17.5415 98.5541 14.6411 97.7255L14.0917 99.6485C17.1761 100.53 20.3679 100.969 23.6641 100.969V98.9694ZM14.7254 97.7537C12.0817 96.7368 9.51473 95.1006 7.02687 92.8201L5.67542 94.2944C8.31734 96.7161 11.0939 98.4998 14.0074 99.6203L14.7254 97.7537ZM7.27583 93.1765C4.33351 86.0309 2.8626 78.5725 2.8626 70.7939H0.862597C0.862597 78.832 2.38405 86.5492 5.42647 93.938L7.27583 93.1765ZM67.9466 70.7939C67.9466 61.5387 69.9436 52.7081 73.9415 44.2916L72.1349 43.4335C68.0106 52.1163 65.9466 61.2399 65.9466 70.7939H67.9466ZM73.9415 44.2916C77.957 35.8378 83.2411 28.1222 89.7976 21.1427L88.3399 19.7733C81.6445 26.9007 76.2415 34.788 72.1349 43.4335L73.9415 44.2916ZM89.7969 21.1433C96.5849 13.9312 103.898 7.78518 111.735 2.70153L110.647 1.02361C102.667 6.19949 95.232 12.4505 88.3405 19.7726L89.7969 21.1433ZM110.373 2.43806L116.465 11.0945L118.1 9.94355L112.009 1.28707L110.373 2.43806ZM116.655 9.74029C108.93 15.9632 102.581 21.8796 97.6174 27.4901L99.1154 28.8152C103.984 23.3112 110.245 17.4718 117.91 11.2978L116.655 9.74029ZM97.6157 27.492C92.8251 32.9359 88.6056 39.9815 84.9423 48.6012L86.7829 49.3835C90.3868 40.9039 94.5032 34.0564 99.1171 28.8133L97.6157 27.492ZM85.1951 49.7369L94.4928 58.0728L95.8279 56.5836L86.5302 48.2478L85.1951 49.7369ZM94.5234 58.0992C99.3761 62.1079 102.562 65.945 104.185 69.597L106.013 68.7847C104.216 64.7419 100.777 60.6706 95.7972 56.5573L94.5234 58.0992ZM104.185 69.5969C105.841 73.3212 106.664 77.1374 106.664 81.0534H108.664C108.664 76.8473 107.778 72.7551 106.013 68.7847L104.185 69.5969ZM106.664 81.0534C106.664 87.2944 105.003 91.7959 101.85 94.7514L103.218 96.2104C106.905 92.7537 108.664 87.6369 108.664 81.0534H106.664ZM101.876 94.7283C98.6833 97.5218 94.3442 98.9694 88.7481 98.9694V100.969C94.694 100.969 99.5457 99.4247 103.193 96.2335L101.876 94.7283ZM88.7481 98.9694C85.6321 98.9694 82.6255 98.5541 79.7251 97.7255L79.1757 99.6485C82.2601 100.53 85.4519 100.969 88.7481 100.969V98.9694ZM79.8094 97.7537C77.1656 96.7368 74.5987 95.1006 72.1108 92.8201L70.7594 94.2944C73.4013 96.7161 76.1779 98.4998 79.0914 99.6203L79.8094 97.7537ZM72.3598 93.1765C69.4175 86.0309 67.9466 78.5725 67.9466 70.7939H65.9466C65.9466 78.832 67.468 86.5492 70.5104 93.938L72.3598 93.1765Z" fill="#D9D9D9" mask="url(#path-1-outside-1_22_297)"/>
</svg>
